<mxfile host="Electron" modified="2024-02-04T19:54:40.097Z" agent="Mozilla/5.0 (Macintosh; Intel Mac OS X 10_15_7) AppleWebKit/537.36 (KHTML, like Gecko) draw.io/22.0.1 Chrome/114.0.5735.289 Electron/25.8.4 Safari/537.36" etag="TQAuTxBRAPB_J5DNDN8N" version="22.0.1" type="device">
  <diagram name="Page-1" id="JEuw19AK44UgBzt8vyE1">
    <mxGraphModel dx="1180" dy="1252" grid="1" gridSize="10" guides="1" tooltips="1" connect="1" arrows="1" fold="1" page="1" pageScale="1" pageWidth="850" pageHeight="1100" math="0" shadow="0">
      <root>
        <mxCell id="0" />
        <mxCell id="1" parent="0" />
        <mxCell id="fkXdK9UBL2qXsFd-4aEh-22" style="edgeStyle=orthogonalEdgeStyle;rounded=0;orthogonalLoop=1;jettySize=auto;html=1;entryX=0.5;entryY=0;entryDx=0;entryDy=0;" parent="1" source="fkXdK9UBL2qXsFd-4aEh-1" target="fkXdK9UBL2qXsFd-4aEh-17" edge="1">
          <mxGeometry relative="1" as="geometry" />
        </mxCell>
        <mxCell id="fkXdK9UBL2qXsFd-4aEh-1" value="&lt;font style=&quot;font-size: 18px;&quot;&gt;Library&lt;/font&gt;" style="rounded=1;whiteSpace=wrap;html=1;" parent="1" vertex="1">
          <mxGeometry x="320" y="10" width="225" height="80" as="geometry" />
        </mxCell>
        <mxCell id="fkXdK9UBL2qXsFd-4aEh-7" style="edgeStyle=orthogonalEdgeStyle;rounded=0;orthogonalLoop=1;jettySize=auto;html=1;entryX=0.5;entryY=0;entryDx=0;entryDy=0;" parent="1" source="fkXdK9UBL2qXsFd-4aEh-3" target="fkXdK9UBL2qXsFd-4aEh-6" edge="1">
          <mxGeometry relative="1" as="geometry" />
        </mxCell>
        <mxCell id="fkXdK9UBL2qXsFd-4aEh-11" style="edgeStyle=orthogonalEdgeStyle;rounded=0;orthogonalLoop=1;jettySize=auto;html=1;entryX=0.5;entryY=0;entryDx=0;entryDy=0;" parent="1" source="fkXdK9UBL2qXsFd-4aEh-3" target="fkXdK9UBL2qXsFd-4aEh-8" edge="1">
          <mxGeometry relative="1" as="geometry" />
        </mxCell>
        <mxCell id="fkXdK9UBL2qXsFd-4aEh-3" value="&lt;font style=&quot;font-size: 18px;&quot;&gt;Fiction&lt;/font&gt;" style="rounded=1;whiteSpace=wrap;html=1;" parent="1" vertex="1">
          <mxGeometry x="92.5" y="280" width="225" height="80" as="geometry" />
        </mxCell>
        <mxCell id="fkXdK9UBL2qXsFd-4aEh-14" style="edgeStyle=orthogonalEdgeStyle;rounded=0;orthogonalLoop=1;jettySize=auto;html=1;entryX=0.5;entryY=0;entryDx=0;entryDy=0;" parent="1" source="fkXdK9UBL2qXsFd-4aEh-4" target="fkXdK9UBL2qXsFd-4aEh-12" edge="1">
          <mxGeometry relative="1" as="geometry" />
        </mxCell>
        <mxCell id="fkXdK9UBL2qXsFd-4aEh-15" style="edgeStyle=orthogonalEdgeStyle;rounded=0;orthogonalLoop=1;jettySize=auto;html=1;entryX=0.5;entryY=0;entryDx=0;entryDy=0;" parent="1" source="fkXdK9UBL2qXsFd-4aEh-4" target="fkXdK9UBL2qXsFd-4aEh-13" edge="1">
          <mxGeometry relative="1" as="geometry" />
        </mxCell>
        <mxCell id="fkXdK9UBL2qXsFd-4aEh-4" value="&lt;font style=&quot;font-size: 18px;&quot;&gt;Non-Fiction&lt;/font&gt;" style="rounded=1;whiteSpace=wrap;html=1;" parent="1" vertex="1">
          <mxGeometry x="540" y="280" width="225" height="80" as="geometry" />
        </mxCell>
        <mxCell id="fkXdK9UBL2qXsFd-4aEh-42" style="edgeStyle=orthogonalEdgeStyle;rounded=0;orthogonalLoop=1;jettySize=auto;html=1;entryX=0.5;entryY=0;entryDx=0;entryDy=0;" parent="1" source="fkXdK9UBL2qXsFd-4aEh-6" target="fkXdK9UBL2qXsFd-4aEh-41" edge="1">
          <mxGeometry relative="1" as="geometry" />
        </mxCell>
        <mxCell id="fkXdK9UBL2qXsFd-4aEh-6" value="&lt;font style=&quot;font-size: 18px;&quot;&gt;Books (FXXX)&lt;/font&gt;" style="rounded=1;whiteSpace=wrap;html=1;" parent="1" vertex="1">
          <mxGeometry x="52.5" y="400" width="130" height="80" as="geometry" />
        </mxCell>
        <mxCell id="fkXdK9UBL2qXsFd-4aEh-43" style="edgeStyle=orthogonalEdgeStyle;rounded=0;orthogonalLoop=1;jettySize=auto;html=1;entryX=0.5;entryY=0;entryDx=0;entryDy=0;" parent="1" source="fkXdK9UBL2qXsFd-4aEh-8" target="fkXdK9UBL2qXsFd-4aEh-41" edge="1">
          <mxGeometry relative="1" as="geometry" />
        </mxCell>
        <mxCell id="fkXdK9UBL2qXsFd-4aEh-8" value="&lt;font style=&quot;font-size: 18px;&quot;&gt;Periodicals (PXXX)&lt;/font&gt;" style="rounded=1;whiteSpace=wrap;html=1;" parent="1" vertex="1">
          <mxGeometry x="215.5" y="400" width="132.5" height="80" as="geometry" />
        </mxCell>
        <mxCell id="fkXdK9UBL2qXsFd-4aEh-39" style="edgeStyle=orthogonalEdgeStyle;rounded=0;orthogonalLoop=1;jettySize=auto;html=1;entryX=0.5;entryY=0;entryDx=0;entryDy=0;" parent="1" source="fkXdK9UBL2qXsFd-4aEh-12" target="fkXdK9UBL2qXsFd-4aEh-38" edge="1">
          <mxGeometry relative="1" as="geometry" />
        </mxCell>
        <mxCell id="fkXdK9UBL2qXsFd-4aEh-12" value="&lt;font style=&quot;font-size: 18px;&quot;&gt;Books (NFXXX)&lt;/font&gt;" style="rounded=1;whiteSpace=wrap;html=1;" parent="1" vertex="1">
          <mxGeometry x="520" y="400" width="130" height="80" as="geometry" />
        </mxCell>
        <mxCell id="fkXdK9UBL2qXsFd-4aEh-40" style="edgeStyle=orthogonalEdgeStyle;rounded=0;orthogonalLoop=1;jettySize=auto;html=1;entryX=0.5;entryY=0;entryDx=0;entryDy=0;" parent="1" source="fkXdK9UBL2qXsFd-4aEh-13" target="fkXdK9UBL2qXsFd-4aEh-38" edge="1">
          <mxGeometry relative="1" as="geometry" />
        </mxCell>
        <mxCell id="fkXdK9UBL2qXsFd-4aEh-13" value="&lt;font style=&quot;font-size: 18px;&quot;&gt;Periodicals (PXXX)&lt;/font&gt;" style="rounded=1;whiteSpace=wrap;html=1;" parent="1" vertex="1">
          <mxGeometry x="680" y="400" width="132.5" height="80" as="geometry" />
        </mxCell>
        <mxCell id="fkXdK9UBL2qXsFd-4aEh-57" style="edgeStyle=orthogonalEdgeStyle;rounded=0;orthogonalLoop=1;jettySize=auto;html=1;entryX=1;entryY=0.5;entryDx=0;entryDy=0;" parent="1" source="fkXdK9UBL2qXsFd-4aEh-17" target="fkXdK9UBL2qXsFd-4aEh-3" edge="1">
          <mxGeometry relative="1" as="geometry">
            <Array as="points">
              <mxPoint x="430" y="320" />
            </Array>
          </mxGeometry>
        </mxCell>
        <mxCell id="fkXdK9UBL2qXsFd-4aEh-58" style="edgeStyle=orthogonalEdgeStyle;rounded=0;orthogonalLoop=1;jettySize=auto;html=1;entryX=0;entryY=0.5;entryDx=0;entryDy=0;" parent="1" source="fkXdK9UBL2qXsFd-4aEh-17" target="fkXdK9UBL2qXsFd-4aEh-4" edge="1">
          <mxGeometry relative="1" as="geometry">
            <Array as="points">
              <mxPoint x="430" y="320" />
            </Array>
          </mxGeometry>
        </mxCell>
        <mxCell id="fkXdK9UBL2qXsFd-4aEh-17" value="&lt;span style=&quot;font-size: 18px;&quot;&gt;Reading Material (Database)&lt;/span&gt;" style="rounded=1;whiteSpace=wrap;html=1;" parent="1" vertex="1">
          <mxGeometry x="321" y="150" width="225" height="80" as="geometry" />
        </mxCell>
        <mxCell id="fkXdK9UBL2qXsFd-4aEh-60" style="edgeStyle=orthogonalEdgeStyle;rounded=0;orthogonalLoop=1;jettySize=auto;html=1;entryX=0.5;entryY=0;entryDx=0;entryDy=0;" parent="1" source="fkXdK9UBL2qXsFd-4aEh-33" target="fkXdK9UBL2qXsFd-4aEh-59" edge="1">
          <mxGeometry relative="1" as="geometry" />
        </mxCell>
        <mxCell id="fkXdK9UBL2qXsFd-4aEh-33" value="&lt;font style=&quot;font-size: 28px;&quot;&gt;B&lt;/font&gt;" style="ellipse;whiteSpace=wrap;html=1;aspect=fixed;" parent="1" vertex="1">
          <mxGeometry x="1135" y="40" width="80" height="80" as="geometry" />
        </mxCell>
        <mxCell id="fkXdK9UBL2qXsFd-4aEh-38" value="&lt;font style=&quot;font-size: 28px;&quot;&gt;B&lt;/font&gt;" style="ellipse;whiteSpace=wrap;html=1;aspect=fixed;" parent="1" vertex="1">
          <mxGeometry x="630" y="530" width="80" height="80" as="geometry" />
        </mxCell>
        <mxCell id="fkXdK9UBL2qXsFd-4aEh-41" value="&lt;font style=&quot;font-size: 28px;&quot;&gt;B&lt;/font&gt;" style="ellipse;whiteSpace=wrap;html=1;aspect=fixed;" parent="1" vertex="1">
          <mxGeometry x="160" y="530" width="80" height="80" as="geometry" />
        </mxCell>
        <mxCell id="fkXdK9UBL2qXsFd-4aEh-61" style="edgeStyle=orthogonalEdgeStyle;rounded=0;orthogonalLoop=1;jettySize=auto;html=1;entryX=0.476;entryY=0.003;entryDx=0;entryDy=0;entryPerimeter=0;" parent="1" source="fkXdK9UBL2qXsFd-4aEh-59" edge="1">
          <mxGeometry relative="1" as="geometry">
            <mxPoint x="1174.82" y="330.24" as="targetPoint" />
          </mxGeometry>
        </mxCell>
        <mxCell id="fkXdK9UBL2qXsFd-4aEh-59" value="&lt;span style=&quot;font-size: 18px;&quot;&gt;Unique Book ID&lt;br&gt;/Equipment&lt;/span&gt;" style="rounded=1;whiteSpace=wrap;html=1;" parent="1" vertex="1">
          <mxGeometry x="1080" y="200" width="190" height="80" as="geometry" />
        </mxCell>
        <mxCell id="fkXdK9UBL2qXsFd-4aEh-65" style="edgeStyle=orthogonalEdgeStyle;rounded=0;orthogonalLoop=1;jettySize=auto;html=1;entryX=0.5;entryY=0;entryDx=0;entryDy=0;" parent="1" source="fkXdK9UBL2qXsFd-4aEh-64" target="fkXdK9UBL2qXsFd-4aEh-66" edge="1">
          <mxGeometry relative="1" as="geometry">
            <mxPoint x="902.5" y="470" as="targetPoint" />
            <Array as="points">
              <mxPoint x="942.5" y="380" />
            </Array>
          </mxGeometry>
        </mxCell>
        <mxCell id="fkXdK9UBL2qXsFd-4aEh-69" style="edgeStyle=orthogonalEdgeStyle;rounded=0;orthogonalLoop=1;jettySize=auto;html=1;entryX=0.5;entryY=0;entryDx=0;entryDy=0;" parent="1" source="fkXdK9UBL2qXsFd-4aEh-64" target="fkXdK9UBL2qXsFd-4aEh-67" edge="1">
          <mxGeometry relative="1" as="geometry" />
        </mxCell>
        <mxCell id="fkXdK9UBL2qXsFd-4aEh-64" value="&lt;font style=&quot;font-size: 17px;&quot;&gt;Status (Checked Out/On-site)&lt;/font&gt;" style="rhombus;whiteSpace=wrap;html=1;" parent="1" vertex="1">
          <mxGeometry x="1024.38" y="330" width="301.25" height="100" as="geometry" />
        </mxCell>
        <mxCell id="fkXdK9UBL2qXsFd-4aEh-73" style="edgeStyle=orthogonalEdgeStyle;rounded=0;orthogonalLoop=1;jettySize=auto;html=1;entryX=0.5;entryY=0;entryDx=0;entryDy=0;" parent="1" source="fkXdK9UBL2qXsFd-4aEh-66" target="fkXdK9UBL2qXsFd-4aEh-72" edge="1">
          <mxGeometry relative="1" as="geometry" />
        </mxCell>
        <mxCell id="fkXdK9UBL2qXsFd-4aEh-66" value="&lt;span style=&quot;font-size: 18px;&quot;&gt;User-ID&lt;br&gt;(UXXX)&lt;br&gt;&lt;/span&gt;" style="rounded=1;whiteSpace=wrap;html=1;" parent="1" vertex="1">
          <mxGeometry x="890" y="410" width="105" height="80" as="geometry" />
        </mxCell>
        <mxCell id="fkXdK9UBL2qXsFd-4aEh-75" style="edgeStyle=orthogonalEdgeStyle;rounded=0;orthogonalLoop=1;jettySize=auto;html=1;entryX=0.5;entryY=0;entryDx=0;entryDy=0;" parent="1" source="fkXdK9UBL2qXsFd-4aEh-67" target="fkXdK9UBL2qXsFd-4aEh-74" edge="1">
          <mxGeometry relative="1" as="geometry" />
        </mxCell>
        <mxCell id="fkXdK9UBL2qXsFd-4aEh-67" value="&lt;span style=&quot;font-size: 18px;&quot;&gt;Location/Facility&lt;/span&gt;" style="rounded=1;whiteSpace=wrap;html=1;" parent="1" vertex="1">
          <mxGeometry x="1330" y="410" width="165" height="80" as="geometry" />
        </mxCell>
        <mxCell id="fkXdK9UBL2qXsFd-4aEh-72" value="&lt;font style=&quot;font-size: 28px;&quot;&gt;C&lt;/font&gt;" style="ellipse;whiteSpace=wrap;html=1;aspect=fixed;" parent="1" vertex="1">
          <mxGeometry x="902.5" y="520" width="80" height="80" as="geometry" />
        </mxCell>
        <mxCell id="fkXdK9UBL2qXsFd-4aEh-74" value="&lt;font style=&quot;font-size: 28px;&quot;&gt;C&lt;/font&gt;" style="ellipse;whiteSpace=wrap;html=1;aspect=fixed;" parent="1" vertex="1">
          <mxGeometry x="1372.5" y="520" width="80" height="80" as="geometry" />
        </mxCell>
        <mxCell id="fkXdK9UBL2qXsFd-4aEh-79" style="edgeStyle=orthogonalEdgeStyle;rounded=0;orthogonalLoop=1;jettySize=auto;html=1;entryX=0.5;entryY=0;entryDx=0;entryDy=0;" parent="1" source="fkXdK9UBL2qXsFd-4aEh-77" target="fkXdK9UBL2qXsFd-4aEh-78" edge="1">
          <mxGeometry relative="1" as="geometry" />
        </mxCell>
        <mxCell id="fkXdK9UBL2qXsFd-4aEh-77" value="&lt;font style=&quot;font-size: 28px;&quot;&gt;C&lt;/font&gt;" style="ellipse;whiteSpace=wrap;html=1;aspect=fixed;" parent="1" vertex="1">
          <mxGeometry x="1440" y="40" width="80" height="80" as="geometry" />
        </mxCell>
        <mxCell id="fkXdK9UBL2qXsFd-4aEh-78" value="&lt;span style=&quot;font-size: 18px;&quot;&gt;Display&lt;/span&gt;" style="rounded=1;whiteSpace=wrap;html=1;" parent="1" vertex="1">
          <mxGeometry x="1385" y="200" width="190" height="80" as="geometry" />
        </mxCell>
      </root>
    </mxGraphModel>
  </diagram>
</mxfile>
